<mxfile host="app.diagrams.net" modified="2022-12-11T08:07:49.976Z" agent="5.0 (Macintosh; Intel Mac OS X 10_15_7) AppleWebKit/537.36 (KHTML, like Gecko) Chrome/107.0.0.0 Safari/537.36" etag="4NALAadNNpAEWAHSqDVt" version="20.2.2" type="github">
  <diagram id="v-HsH-0y2GeqhX0_Ezw7" name="第 1 页">
    <mxGraphModel dx="1186" dy="796" grid="0" gridSize="10" guides="1" tooltips="1" connect="1" arrows="1" fold="1" page="1" pageScale="1" pageWidth="3300" pageHeight="4681" math="0" shadow="0">
      <root>
        <mxCell id="0" />
        <mxCell id="1" parent="0" />
        <mxCell id="2BLuXLSd1eojTHQWstAA-1" value="硬件" style="rounded=1;whiteSpace=wrap;html=1;fontSize=15;" vertex="1" parent="1">
          <mxGeometry x="232" y="367" width="120" height="60" as="geometry" />
        </mxCell>
        <mxCell id="2BLuXLSd1eojTHQWstAA-2" value="驱动" style="rounded=1;whiteSpace=wrap;html=1;fontSize=15;" vertex="1" parent="1">
          <mxGeometry x="232" y="282" width="120" height="60" as="geometry" />
        </mxCell>
        <mxCell id="2BLuXLSd1eojTHQWstAA-3" value="内核" style="ellipse;whiteSpace=wrap;html=1;fontSize=15;" vertex="1" parent="1">
          <mxGeometry x="232" y="181" width="120" height="80" as="geometry" />
        </mxCell>
        <mxCell id="2BLuXLSd1eojTHQWstAA-4" value="shell" style="rounded=1;whiteSpace=wrap;html=1;fontSize=15;" vertex="1" parent="1">
          <mxGeometry x="83" y="10" width="120" height="60" as="geometry" />
        </mxCell>
        <mxCell id="2BLuXLSd1eojTHQWstAA-5" value="" style="shape=link;html=1;rounded=0;fontSize=15;" edge="1" parent="1">
          <mxGeometry width="100" relative="1" as="geometry">
            <mxPoint x="89" y="132" as="sourcePoint" />
            <mxPoint x="481" y="132" as="targetPoint" />
          </mxGeometry>
        </mxCell>
        <mxCell id="2BLuXLSd1eojTHQWstAA-6" value="QQ" style="rounded=1;whiteSpace=wrap;html=1;fontSize=15;" vertex="1" parent="1">
          <mxGeometry x="236" y="10" width="120" height="60" as="geometry" />
        </mxCell>
        <mxCell id="2BLuXLSd1eojTHQWstAA-7" value="浏览器" style="rounded=1;whiteSpace=wrap;html=1;" vertex="1" parent="1">
          <mxGeometry x="397" y="10" width="120" height="60" as="geometry" />
        </mxCell>
        <mxCell id="2BLuXLSd1eojTHQWstAA-8" value="" style="endArrow=classic;html=1;rounded=0;exitX=0.5;exitY=1;exitDx=0;exitDy=0;entryX=0;entryY=0;entryDx=0;entryDy=0;startArrow=classic;startFill=1;fontSize=15;" edge="1" parent="1" source="2BLuXLSd1eojTHQWstAA-4" target="2BLuXLSd1eojTHQWstAA-3">
          <mxGeometry width="50" height="50" relative="1" as="geometry">
            <mxPoint x="394" y="324" as="sourcePoint" />
            <mxPoint x="444" y="274" as="targetPoint" />
          </mxGeometry>
        </mxCell>
        <mxCell id="2BLuXLSd1eojTHQWstAA-9" value="" style="endArrow=classic;html=1;rounded=0;exitX=0.5;exitY=1;exitDx=0;exitDy=0;entryX=1;entryY=0;entryDx=0;entryDy=0;startArrow=classic;startFill=1;fontSize=15;" edge="1" parent="1" source="2BLuXLSd1eojTHQWstAA-7" target="2BLuXLSd1eojTHQWstAA-3">
          <mxGeometry width="50" height="50" relative="1" as="geometry">
            <mxPoint x="153" y="80" as="sourcePoint" />
            <mxPoint x="259.57359312880726" y="202.7157287525381" as="targetPoint" />
          </mxGeometry>
        </mxCell>
        <mxCell id="2BLuXLSd1eojTHQWstAA-10" value="" style="endArrow=classic;html=1;rounded=0;exitX=0.5;exitY=1;exitDx=0;exitDy=0;startArrow=classic;startFill=1;fontSize=15;" edge="1" parent="1" source="2BLuXLSd1eojTHQWstAA-6" target="2BLuXLSd1eojTHQWstAA-3">
          <mxGeometry width="50" height="50" relative="1" as="geometry">
            <mxPoint x="467" y="80" as="sourcePoint" />
            <mxPoint x="344.42640687119274" y="202.71572875253833" as="targetPoint" />
          </mxGeometry>
        </mxCell>
        <mxCell id="2BLuXLSd1eojTHQWstAA-11" value="系统调用" style="text;html=1;strokeColor=none;fillColor=none;align=center;verticalAlign=middle;whiteSpace=wrap;rounded=0;fontSize=15;" vertex="1" parent="1">
          <mxGeometry x="93" y="138" width="60" height="30" as="geometry" />
        </mxCell>
        <mxCell id="2BLuXLSd1eojTHQWstAA-12" value="" style="endArrow=classic;html=1;rounded=0;exitX=0.5;exitY=0;exitDx=0;exitDy=0;fontSize=15;" edge="1" parent="1" source="2BLuXLSd1eojTHQWstAA-1" target="2BLuXLSd1eojTHQWstAA-2">
          <mxGeometry width="50" height="50" relative="1" as="geometry">
            <mxPoint x="394" y="291" as="sourcePoint" />
            <mxPoint x="444" y="241" as="targetPoint" />
          </mxGeometry>
        </mxCell>
        <mxCell id="2BLuXLSd1eojTHQWstAA-13" value="" style="endArrow=classic;html=1;rounded=0;exitX=0.5;exitY=0;exitDx=0;exitDy=0;entryX=0.5;entryY=1;entryDx=0;entryDy=0;fontSize=15;" edge="1" parent="1" source="2BLuXLSd1eojTHQWstAA-2" target="2BLuXLSd1eojTHQWstAA-3">
          <mxGeometry width="50" height="50" relative="1" as="geometry">
            <mxPoint x="302" y="377" as="sourcePoint" />
            <mxPoint x="302" y="352" as="targetPoint" />
          </mxGeometry>
        </mxCell>
        <mxCell id="2BLuXLSd1eojTHQWstAA-14" value="应用程序" style="text;html=1;strokeColor=none;fillColor=none;align=center;verticalAlign=middle;whiteSpace=wrap;rounded=0;fontSize=15;" vertex="1" parent="1">
          <mxGeometry x="93" y="94" width="60" height="30" as="geometry" />
        </mxCell>
        <mxCell id="2BLuXLSd1eojTHQWstAA-18" style="edgeStyle=orthogonalEdgeStyle;rounded=0;orthogonalLoop=1;jettySize=auto;html=1;entryX=0;entryY=0.5;entryDx=0;entryDy=0;startArrow=none;startFill=0;fontSize=13;" edge="1" parent="1" source="2BLuXLSd1eojTHQWstAA-15" target="2BLuXLSd1eojTHQWstAA-16">
          <mxGeometry relative="1" as="geometry" />
        </mxCell>
        <mxCell id="2BLuXLSd1eojTHQWstAA-15" value="源代码&lt;br style=&quot;font-size: 13px;&quot;&gt;（*.c/*.cpp/*.go/*.rs ）" style="rounded=1;whiteSpace=wrap;html=1;fontSize=13;" vertex="1" parent="1">
          <mxGeometry x="34" y="684" width="135" height="60" as="geometry" />
        </mxCell>
        <mxCell id="2BLuXLSd1eojTHQWstAA-20" value="" style="edgeStyle=orthogonalEdgeStyle;rounded=0;orthogonalLoop=1;jettySize=auto;html=1;startArrow=none;startFill=0;fontSize=13;" edge="1" parent="1" source="2BLuXLSd1eojTHQWstAA-16" target="2BLuXLSd1eojTHQWstAA-19">
          <mxGeometry relative="1" as="geometry" />
        </mxCell>
        <mxCell id="2BLuXLSd1eojTHQWstAA-16" value="编译&lt;br style=&quot;font-size: 13px;&quot;&gt;(动态编译/静态编译)" style="rounded=1;whiteSpace=wrap;html=1;fontSize=13;" vertex="1" parent="1">
          <mxGeometry x="225" y="684" width="120" height="60" as="geometry" />
        </mxCell>
        <mxCell id="2BLuXLSd1eojTHQWstAA-19" value="可执行文件&lt;br style=&quot;font-size: 13px;&quot;&gt;（ELF、EXE）" style="rounded=1;whiteSpace=wrap;html=1;fontSize=13;" vertex="1" parent="1">
          <mxGeometry x="417" y="684" width="120" height="60" as="geometry" />
        </mxCell>
        <mxCell id="2BLuXLSd1eojTHQWstAA-21" value="" style="rounded=0;whiteSpace=wrap;html=1;fontSize=13;" vertex="1" parent="1">
          <mxGeometry x="616" y="500" width="241" height="331" as="geometry" />
        </mxCell>
        <mxCell id="2BLuXLSd1eojTHQWstAA-22" value="操作系统" style="text;html=1;strokeColor=none;fillColor=none;align=center;verticalAlign=middle;whiteSpace=wrap;rounded=0;fontSize=13;" vertex="1" parent="1">
          <mxGeometry x="706.5" y="789" width="60" height="30" as="geometry" />
        </mxCell>
        <mxCell id="2BLuXLSd1eojTHQWstAA-23" value="" style="endArrow=none;html=1;rounded=0;entryX=1;entryY=0.75;entryDx=0;entryDy=0;exitX=0;exitY=0.75;exitDx=0;exitDy=0;fontSize=13;" edge="1" parent="1" source="2BLuXLSd1eojTHQWstAA-21" target="2BLuXLSd1eojTHQWstAA-21">
          <mxGeometry width="50" height="50" relative="1" as="geometry">
            <mxPoint x="496" y="464" as="sourcePoint" />
            <mxPoint x="546" y="414" as="targetPoint" />
          </mxGeometry>
        </mxCell>
        <mxCell id="2BLuXLSd1eojTHQWstAA-38" value="系统调用" style="edgeLabel;html=1;align=center;verticalAlign=middle;resizable=0;points=[];fontSize=13;" vertex="1" connectable="0" parent="2BLuXLSd1eojTHQWstAA-23">
          <mxGeometry x="-0.2241" y="-2" relative="1" as="geometry">
            <mxPoint x="1" y="1" as="offset" />
          </mxGeometry>
        </mxCell>
        <mxCell id="2BLuXLSd1eojTHQWstAA-24" value="内核态" style="text;html=1;strokeColor=none;fillColor=none;align=center;verticalAlign=middle;whiteSpace=wrap;rounded=0;fontSize=13;" vertex="1" parent="1">
          <mxGeometry x="803" y="748" width="60" height="30" as="geometry" />
        </mxCell>
        <mxCell id="2BLuXLSd1eojTHQWstAA-25" value="用户态" style="text;html=1;strokeColor=none;fillColor=none;align=center;verticalAlign=middle;whiteSpace=wrap;rounded=0;fontSize=13;" vertex="1" parent="1">
          <mxGeometry x="802" y="720" width="60" height="30" as="geometry" />
        </mxCell>
        <mxCell id="2BLuXLSd1eojTHQWstAA-26" value="" style="curved=1;endArrow=none;html=1;rounded=0;endFill=0;fontSize=13;" edge="1" parent="1">
          <mxGeometry width="50" height="50" relative="1" as="geometry">
            <mxPoint x="741" y="635" as="sourcePoint" />
            <mxPoint x="759" y="541" as="targetPoint" />
            <Array as="points">
              <mxPoint x="768" y="607" />
              <mxPoint x="727" y="569" />
            </Array>
          </mxGeometry>
        </mxCell>
        <mxCell id="2BLuXLSd1eojTHQWstAA-27" value="" style="curved=1;endArrow=none;html=1;rounded=0;endFill=0;fontSize=13;" edge="1" parent="1">
          <mxGeometry width="50" height="50" relative="1" as="geometry">
            <mxPoint x="802.5" y="631" as="sourcePoint" />
            <mxPoint x="820.5" y="537" as="targetPoint" />
            <Array as="points">
              <mxPoint x="829.5" y="603" />
              <mxPoint x="788.5" y="565" />
            </Array>
          </mxGeometry>
        </mxCell>
        <mxCell id="2BLuXLSd1eojTHQWstAA-30" value="从文件系统加载到内核执行" style="text;html=1;strokeColor=none;fillColor=none;align=center;verticalAlign=middle;whiteSpace=wrap;rounded=0;fontSize=13;" vertex="1" parent="1">
          <mxGeometry x="498" y="769" width="88" height="30" as="geometry" />
        </mxCell>
        <mxCell id="2BLuXLSd1eojTHQWstAA-32" value="tt" style="text;html=1;strokeColor=none;fillColor=none;align=center;verticalAlign=middle;whiteSpace=wrap;rounded=0;" vertex="1" parent="1">
          <mxGeometry x="841" y="1032" width="60" height="30" as="geometry" />
        </mxCell>
        <mxCell id="2BLuXLSd1eojTHQWstAA-33" value="进程" style="text;html=1;strokeColor=none;fillColor=none;align=center;verticalAlign=middle;whiteSpace=wrap;rounded=0;fontSize=13;" vertex="1" parent="1">
          <mxGeometry x="739" y="567" width="60" height="30" as="geometry" />
        </mxCell>
        <mxCell id="2BLuXLSd1eojTHQWstAA-39" style="edgeStyle=orthogonalEdgeStyle;curved=1;rounded=0;orthogonalLoop=1;jettySize=auto;html=1;dashed=1;startArrow=none;startFill=0;endArrow=classic;endFill=1;fontSize=13;" edge="1" parent="1" source="2BLuXLSd1eojTHQWstAA-34">
          <mxGeometry relative="1" as="geometry">
            <mxPoint x="711.5" y="744" as="targetPoint" />
          </mxGeometry>
        </mxCell>
        <mxCell id="2BLuXLSd1eojTHQWstAA-34" value="开始启动程序" style="ellipse;whiteSpace=wrap;html=1;fontSize=13;" vertex="1" parent="1">
          <mxGeometry x="619" y="659" width="125" height="39" as="geometry" />
        </mxCell>
        <mxCell id="2BLuXLSd1eojTHQWstAA-47" value="" style="edgeStyle=orthogonalEdgeStyle;curved=1;rounded=0;orthogonalLoop=1;jettySize=auto;html=1;dashed=1;startArrow=none;startFill=0;endArrow=classic;endFill=1;exitX=0.743;exitY=0.393;exitDx=0;exitDy=0;exitPerimeter=0;fontSize=13;" edge="1" parent="1">
          <mxGeometry relative="1" as="geometry">
            <mxPoint x="799.0630000000001" y="630.0830000000001" as="sourcePoint" />
            <mxPoint x="733" y="745" as="targetPoint" />
            <Array as="points">
              <mxPoint x="799" y="695" />
              <mxPoint x="733" y="695" />
            </Array>
          </mxGeometry>
        </mxCell>
        <mxCell id="2BLuXLSd1eojTHQWstAA-37" value="返回用户态" style="text;html=1;strokeColor=none;fillColor=none;align=center;verticalAlign=middle;whiteSpace=wrap;rounded=0;fontSize=13;" vertex="1" parent="1">
          <mxGeometry x="802" y="651" width="78" height="30" as="geometry" />
        </mxCell>
        <mxCell id="2BLuXLSd1eojTHQWstAA-40" style="edgeStyle=orthogonalEdgeStyle;curved=1;rounded=0;orthogonalLoop=1;jettySize=auto;html=1;entryX=0.5;entryY=1;entryDx=0;entryDy=0;dashed=1;startArrow=none;startFill=0;endArrow=classic;endFill=1;fontSize=13;" edge="1" parent="1" target="2BLuXLSd1eojTHQWstAA-19">
          <mxGeometry relative="1" as="geometry">
            <mxPoint x="717" y="755" as="sourcePoint" />
            <Array as="points">
              <mxPoint x="714" y="755" />
              <mxPoint x="714" y="816" />
              <mxPoint x="477" y="816" />
            </Array>
          </mxGeometry>
        </mxCell>
        <mxCell id="2BLuXLSd1eojTHQWstAA-41" style="edgeStyle=orthogonalEdgeStyle;curved=1;rounded=0;orthogonalLoop=1;jettySize=auto;html=1;dashed=1;startArrow=none;startFill=0;endArrow=classic;endFill=1;fontSize=13;" edge="1" parent="1">
          <mxGeometry relative="1" as="geometry">
            <mxPoint x="804" y="630" as="targetPoint" />
            <mxPoint x="737" y="750" as="sourcePoint" />
            <Array as="points">
              <mxPoint x="804" y="750" />
            </Array>
          </mxGeometry>
        </mxCell>
        <mxCell id="2BLuXLSd1eojTHQWstAA-46" value="进程" style="text;html=1;strokeColor=none;fillColor=none;align=center;verticalAlign=middle;whiteSpace=wrap;rounded=0;fontSize=13;" vertex="1" parent="1">
          <mxGeometry x="805" y="567" width="60" height="30" as="geometry" />
        </mxCell>
        <mxCell id="2BLuXLSd1eojTHQWstAA-48" value="进入内核" style="text;html=1;strokeColor=none;fillColor=none;align=center;verticalAlign=middle;whiteSpace=wrap;rounded=0;fontSize=13;" vertex="1" parent="1">
          <mxGeometry x="730" y="651" width="78" height="30" as="geometry" />
        </mxCell>
        <mxCell id="2BLuXLSd1eojTHQWstAA-51" value="" style="rounded=1;whiteSpace=wrap;html=1;fontSize=14;" vertex="1" parent="1">
          <mxGeometry x="70" y="953" width="586" height="244" as="geometry" />
        </mxCell>
        <mxCell id="2BLuXLSd1eojTHQWstAA-52" value="应用程序" style="rounded=0;whiteSpace=wrap;html=1;fontSize=14;" vertex="1" parent="1">
          <mxGeometry x="86" y="898" width="551" height="38" as="geometry" />
        </mxCell>
        <mxCell id="2BLuXLSd1eojTHQWstAA-53" value="进程管理&lt;br style=&quot;font-size: 14px;&quot;&gt;&lt;br style=&quot;font-size: 14px;&quot;&gt;&lt;br style=&quot;font-size: 14px;&quot;&gt;&lt;br style=&quot;font-size: 14px;&quot;&gt;&lt;br style=&quot;font-size: 14px;&quot;&gt;&lt;br style=&quot;font-size: 14px;&quot;&gt;&lt;br style=&quot;font-size: 14px;&quot;&gt;" style="rounded=1;whiteSpace=wrap;html=1;fontSize=14;" vertex="1" parent="1">
          <mxGeometry x="89" y="1006" width="120" height="134" as="geometry" />
        </mxCell>
        <mxCell id="2BLuXLSd1eojTHQWstAA-54" value="内存管理&lt;br style=&quot;font-size: 14px;&quot;&gt;&lt;br style=&quot;font-size: 14px;&quot;&gt;&lt;br style=&quot;font-size: 14px;&quot;&gt;&lt;br style=&quot;font-size: 14px;&quot;&gt;&lt;br style=&quot;font-size: 14px;&quot;&gt;&lt;br style=&quot;font-size: 14px;&quot;&gt;&lt;br style=&quot;font-size: 14px;&quot;&gt;" style="rounded=1;whiteSpace=wrap;html=1;fontSize=14;" vertex="1" parent="1">
          <mxGeometry x="228" y="1009" width="120" height="134" as="geometry" />
        </mxCell>
        <mxCell id="2BLuXLSd1eojTHQWstAA-55" value="文件系统&lt;br style=&quot;font-size: 14px;&quot;&gt;&lt;br style=&quot;font-size: 14px;&quot;&gt;&lt;br style=&quot;font-size: 14px;&quot;&gt;&lt;br style=&quot;font-size: 14px;&quot;&gt;&lt;br style=&quot;font-size: 14px;&quot;&gt;&lt;br style=&quot;font-size: 14px;&quot;&gt;&lt;br style=&quot;font-size: 14px;&quot;&gt;" style="rounded=1;whiteSpace=wrap;html=1;fontSize=14;" vertex="1" parent="1">
          <mxGeometry x="371" y="1009" width="120" height="134" as="geometry" />
        </mxCell>
        <mxCell id="2BLuXLSd1eojTHQWstAA-56" value="系统调用" style="rounded=1;whiteSpace=wrap;html=1;fontSize=14;" vertex="1" parent="1">
          <mxGeometry x="160" y="943" width="420" height="31" as="geometry" />
        </mxCell>
        <mxCell id="2BLuXLSd1eojTHQWstAA-57" value="VFS" style="rounded=1;whiteSpace=wrap;html=1;fontSize=14;" vertex="1" parent="1">
          <mxGeometry x="394.5" y="1055" width="73" height="28" as="geometry" />
        </mxCell>
        <mxCell id="2BLuXLSd1eojTHQWstAA-58" value="PageCache" style="rounded=1;whiteSpace=wrap;html=1;fontSize=14;" vertex="1" parent="1">
          <mxGeometry x="394.5" y="1098" width="75.5" height="28" as="geometry" />
        </mxCell>
        <mxCell id="2BLuXLSd1eojTHQWstAA-59" value="内存映射" style="rounded=1;whiteSpace=wrap;html=1;fontSize=14;" vertex="1" parent="1">
          <mxGeometry x="253.5" y="1055" width="73" height="28" as="geometry" />
        </mxCell>
        <mxCell id="2BLuXLSd1eojTHQWstAA-60" value="swap" style="rounded=1;whiteSpace=wrap;html=1;fontSize=14;" vertex="1" parent="1">
          <mxGeometry x="253.5" y="1098" width="73" height="28" as="geometry" />
        </mxCell>
        <mxCell id="2BLuXLSd1eojTHQWstAA-61" value="调度" style="rounded=1;whiteSpace=wrap;html=1;fontSize=14;" vertex="1" parent="1">
          <mxGeometry x="112.5" y="1055" width="73" height="28" as="geometry" />
        </mxCell>
        <mxCell id="2BLuXLSd1eojTHQWstAA-62" value="任务管理" style="rounded=1;whiteSpace=wrap;html=1;fontSize=14;" vertex="1" parent="1">
          <mxGeometry x="112.5" y="1098" width="73" height="28" as="geometry" />
        </mxCell>
        <mxCell id="2BLuXLSd1eojTHQWstAA-63" value="网络&lt;br style=&quot;font-size: 14px;&quot;&gt;&lt;br style=&quot;font-size: 14px;&quot;&gt;&lt;br style=&quot;font-size: 14px;&quot;&gt;&lt;br style=&quot;font-size: 14px;&quot;&gt;&lt;br style=&quot;font-size: 14px;&quot;&gt;&lt;br style=&quot;font-size: 14px;&quot;&gt;&lt;br style=&quot;font-size: 14px;&quot;&gt;" style="rounded=1;whiteSpace=wrap;html=1;fontSize=14;" vertex="1" parent="1">
          <mxGeometry x="517" y="1009" width="120" height="134" as="geometry" />
        </mxCell>
        <mxCell id="2BLuXLSd1eojTHQWstAA-64" value="套接字" style="rounded=1;whiteSpace=wrap;html=1;fontSize=14;" vertex="1" parent="1">
          <mxGeometry x="540.5" y="1055" width="73" height="28" as="geometry" />
        </mxCell>
        <mxCell id="2BLuXLSd1eojTHQWstAA-65" value="协议栈" style="rounded=1;whiteSpace=wrap;html=1;fontSize=14;" vertex="1" parent="1">
          <mxGeometry x="540.5" y="1098" width="73" height="28" as="geometry" />
        </mxCell>
        <mxCell id="2BLuXLSd1eojTHQWstAA-66" value="驱动程序" style="rounded=1;whiteSpace=wrap;html=1;fontSize=14;" vertex="1" parent="1">
          <mxGeometry x="146" y="1178" width="420" height="31" as="geometry" />
        </mxCell>
        <mxCell id="2BLuXLSd1eojTHQWstAA-67" value="Linux内核" style="text;html=1;strokeColor=none;fillColor=none;align=center;verticalAlign=middle;whiteSpace=wrap;rounded=0;fontSize=14;" vertex="1" parent="1">
          <mxGeometry x="73" y="964" width="78" height="30" as="geometry" />
        </mxCell>
        <mxCell id="2BLuXLSd1eojTHQWstAA-70" value="进程管理" style="whiteSpace=wrap;html=1;rounded=1;arcSize=50;align=center;verticalAlign=middle;strokeWidth=1;autosize=1;spacing=4;treeFolding=0;treeMoving=1;newEdgeStyle={&quot;edgeStyle&quot;:&quot;entityRelationEdgeStyle&quot;,&quot;startArrow&quot;:&quot;none&quot;,&quot;endArrow&quot;:&quot;none&quot;,&quot;segment&quot;:10,&quot;curved&quot;:1};fontSize=16;" vertex="1" parent="1">
          <mxGeometry x="559" y="1423" width="103" height="35" as="geometry" />
        </mxCell>
        <mxCell id="2BLuXLSd1eojTHQWstAA-71" value="" style="edgeStyle=entityRelationEdgeStyle;startArrow=none;endArrow=none;segment=10;curved=1;rounded=0;dashed=1;fontSize=16;" edge="1" target="2BLuXLSd1eojTHQWstAA-70" parent="1">
          <mxGeometry relative="1" as="geometry">
            <mxPoint x="526" y="1486" as="sourcePoint" />
          </mxGeometry>
        </mxCell>
        <mxCell id="2BLuXLSd1eojTHQWstAA-83" style="edgeStyle=orthogonalEdgeStyle;curved=1;rounded=0;orthogonalLoop=1;jettySize=auto;html=1;entryX=1;entryY=0.5;entryDx=0;entryDy=0;dashed=1;fontSize=16;startArrow=none;startFill=0;endArrow=none;endFill=0;" edge="1" parent="1" source="2BLuXLSd1eojTHQWstAA-72" target="2BLuXLSd1eojTHQWstAA-82">
          <mxGeometry relative="1" as="geometry" />
        </mxCell>
        <mxCell id="2BLuXLSd1eojTHQWstAA-72" value="Linux系统调用" style="ellipse;whiteSpace=wrap;html=1;align=center;newEdgeStyle={&quot;edgeStyle&quot;:&quot;entityRelationEdgeStyle&quot;,&quot;startArrow&quot;:&quot;none&quot;,&quot;endArrow&quot;:&quot;none&quot;,&quot;segment&quot;:10,&quot;curved&quot;:1};treeFolding=0;treeMoving=1;fontSize=16;expand=1;" vertex="1" parent="1">
          <mxGeometry x="396" y="1469" width="128" height="53" as="geometry" />
        </mxCell>
        <mxCell id="2BLuXLSd1eojTHQWstAA-74" value="创建进程：fork" style="whiteSpace=wrap;html=1;shape=partialRectangle;top=0;left=0;bottom=1;right=0;points=[[0,1],[1,1]];fillColor=none;align=center;verticalAlign=bottom;routingCenterY=0.5;snapToPoint=1;recursiveResize=0;autosize=1;treeFolding=0;treeMoving=1;newEdgeStyle={&quot;edgeStyle&quot;:&quot;entityRelationEdgeStyle&quot;,&quot;startArrow&quot;:&quot;none&quot;,&quot;endArrow&quot;:&quot;none&quot;,&quot;segment&quot;:10,&quot;curved&quot;:1};fontSize=16;" vertex="1" collapsed="1" parent="1">
          <mxGeometry x="714" y="1329" width="180" height="31" as="geometry" />
        </mxCell>
        <mxCell id="2BLuXLSd1eojTHQWstAA-75" value="" style="edgeStyle=entityRelationEdgeStyle;startArrow=none;endArrow=none;segment=10;curved=1;rounded=0;dashed=1;fontSize=16;exitX=1;exitY=0.5;exitDx=0;exitDy=0;" edge="1" target="2BLuXLSd1eojTHQWstAA-74" parent="1" source="2BLuXLSd1eojTHQWstAA-70">
          <mxGeometry relative="1" as="geometry">
            <mxPoint x="758" y="1446" as="sourcePoint" />
          </mxGeometry>
        </mxCell>
        <mxCell id="2BLuXLSd1eojTHQWstAA-76" value="执行二进制：execve" style="whiteSpace=wrap;html=1;shape=partialRectangle;top=0;left=0;bottom=1;right=0;points=[[0,1],[1,1]];fillColor=none;align=center;verticalAlign=bottom;routingCenterY=0.5;snapToPoint=1;recursiveResize=0;autosize=1;treeFolding=0;treeMoving=1;newEdgeStyle={&quot;edgeStyle&quot;:&quot;entityRelationEdgeStyle&quot;,&quot;startArrow&quot;:&quot;none&quot;,&quot;endArrow&quot;:&quot;none&quot;,&quot;segment&quot;:10,&quot;curved&quot;:1};fontSize=16;" vertex="1" parent="1">
          <mxGeometry x="717" y="1398" width="182" height="31" as="geometry" />
        </mxCell>
        <mxCell id="2BLuXLSd1eojTHQWstAA-77" value="" style="edgeStyle=entityRelationEdgeStyle;startArrow=none;endArrow=none;segment=10;curved=1;rounded=0;dashed=1;fontSize=16;" edge="1" target="2BLuXLSd1eojTHQWstAA-76" parent="1">
          <mxGeometry relative="1" as="geometry">
            <mxPoint x="664" y="1441" as="sourcePoint" />
          </mxGeometry>
        </mxCell>
        <mxCell id="2BLuXLSd1eojTHQWstAA-80" value="等待子进程退出：waitpid" style="whiteSpace=wrap;html=1;shape=partialRectangle;top=0;left=0;bottom=1;right=0;points=[[0,1],[1,1]];fillColor=none;align=center;verticalAlign=bottom;routingCenterY=0.5;snapToPoint=1;recursiveResize=0;autosize=1;treeFolding=0;treeMoving=1;newEdgeStyle={&quot;edgeStyle&quot;:&quot;entityRelationEdgeStyle&quot;,&quot;startArrow&quot;:&quot;none&quot;,&quot;endArrow&quot;:&quot;none&quot;,&quot;segment&quot;:10,&quot;curved&quot;:1};fontSize=16;" vertex="1" parent="1">
          <mxGeometry x="725" y="1451" width="203" height="35" as="geometry" />
        </mxCell>
        <mxCell id="2BLuXLSd1eojTHQWstAA-81" value="" style="edgeStyle=entityRelationEdgeStyle;startArrow=none;endArrow=none;segment=10;curved=1;rounded=0;dashed=1;fontSize=16;exitX=1;exitY=0.5;exitDx=0;exitDy=0;" edge="1" target="2BLuXLSd1eojTHQWstAA-80" parent="1">
          <mxGeometry relative="1" as="geometry">
            <mxPoint x="662" y="1441" as="sourcePoint" />
          </mxGeometry>
        </mxCell>
        <mxCell id="2BLuXLSd1eojTHQWstAA-82" value="内存管理" style="whiteSpace=wrap;html=1;rounded=1;arcSize=50;align=center;verticalAlign=middle;strokeWidth=1;autosize=1;spacing=4;treeFolding=0;treeMoving=1;newEdgeStyle={&quot;edgeStyle&quot;:&quot;entityRelationEdgeStyle&quot;,&quot;startArrow&quot;:&quot;none&quot;,&quot;endArrow&quot;:&quot;none&quot;,&quot;segment&quot;:10,&quot;curved&quot;:1};fontSize=16;fillColor=default;sketch=0;" vertex="1" parent="1">
          <mxGeometry x="214" y="1389" width="103" height="35" as="geometry" />
        </mxCell>
        <mxCell id="2BLuXLSd1eojTHQWstAA-84" value="申请堆内存：brk" style="whiteSpace=wrap;html=1;shape=partialRectangle;top=0;left=0;bottom=1;right=0;points=[[0,1],[1,1]];fillColor=none;align=center;verticalAlign=bottom;routingCenterY=0.5;snapToPoint=1;recursiveResize=0;autosize=1;treeFolding=0;treeMoving=1;newEdgeStyle={&quot;edgeStyle&quot;:&quot;entityRelationEdgeStyle&quot;,&quot;startArrow&quot;:&quot;none&quot;,&quot;endArrow&quot;:&quot;none&quot;,&quot;segment&quot;:10,&quot;curved&quot;:1};fontSize=16;" vertex="1" parent="1">
          <mxGeometry x="48" y="1335" width="141.5" height="31" as="geometry" />
        </mxCell>
        <mxCell id="2BLuXLSd1eojTHQWstAA-85" value="" style="edgeStyle=entityRelationEdgeStyle;startArrow=none;endArrow=none;segment=10;curved=1;rounded=0;dashed=1;fontSize=16;exitX=0;exitY=0.5;exitDx=0;exitDy=0;" edge="1" target="2BLuXLSd1eojTHQWstAA-84" parent="1" source="2BLuXLSd1eojTHQWstAA-82">
          <mxGeometry relative="1" as="geometry">
            <mxPoint x="159.5" y="1300" as="sourcePoint" />
          </mxGeometry>
        </mxCell>
        <mxCell id="2BLuXLSd1eojTHQWstAA-87" style="edgeStyle=orthogonalEdgeStyle;curved=1;rounded=0;orthogonalLoop=1;jettySize=auto;html=1;entryX=0;entryY=0.5;entryDx=0;entryDy=0;dashed=1;fontSize=16;startArrow=none;startFill=0;endArrow=none;endFill=0;" edge="1" parent="1" source="2BLuXLSd1eojTHQWstAA-86" target="2BLuXLSd1eojTHQWstAA-82">
          <mxGeometry relative="1" as="geometry" />
        </mxCell>
        <mxCell id="2BLuXLSd1eojTHQWstAA-86" value="内存映射：mmap" style="whiteSpace=wrap;html=1;shape=partialRectangle;top=0;left=0;bottom=1;right=0;points=[[0,1],[1,1]];fillColor=none;align=center;verticalAlign=bottom;routingCenterY=0.5;snapToPoint=1;recursiveResize=0;autosize=1;treeFolding=0;treeMoving=1;newEdgeStyle={&quot;edgeStyle&quot;:&quot;entityRelationEdgeStyle&quot;,&quot;startArrow&quot;:&quot;none&quot;,&quot;endArrow&quot;:&quot;none&quot;,&quot;segment&quot;:10,&quot;curved&quot;:1};fontSize=16;" vertex="1" parent="1">
          <mxGeometry x="50" y="1413" width="139" height="31" as="geometry" />
        </mxCell>
        <mxCell id="2BLuXLSd1eojTHQWstAA-88" value="网络管理" style="whiteSpace=wrap;html=1;rounded=1;arcSize=50;align=center;verticalAlign=middle;strokeWidth=1;autosize=1;spacing=4;treeFolding=0;treeMoving=1;newEdgeStyle={&quot;edgeStyle&quot;:&quot;entityRelationEdgeStyle&quot;,&quot;startArrow&quot;:&quot;none&quot;,&quot;endArrow&quot;:&quot;none&quot;,&quot;segment&quot;:10,&quot;curved&quot;:1};fontSize=16;" vertex="1" parent="1">
          <mxGeometry x="575" y="1567" width="103" height="35" as="geometry" />
        </mxCell>
        <mxCell id="2BLuXLSd1eojTHQWstAA-89" value="" style="edgeStyle=entityRelationEdgeStyle;startArrow=none;endArrow=none;segment=10;curved=1;rounded=0;dashed=1;fontSize=16;exitX=1;exitY=0.5;exitDx=0;exitDy=0;" edge="1" target="2BLuXLSd1eojTHQWstAA-88" parent="1" source="2BLuXLSd1eojTHQWstAA-72">
          <mxGeometry relative="1" as="geometry">
            <mxPoint x="332" y="1501" as="sourcePoint" />
          </mxGeometry>
        </mxCell>
        <mxCell id="2BLuXLSd1eojTHQWstAA-90" value="信号" style="whiteSpace=wrap;html=1;rounded=1;arcSize=50;align=center;verticalAlign=middle;strokeWidth=1;autosize=1;spacing=4;treeFolding=0;treeMoving=1;newEdgeStyle={&quot;edgeStyle&quot;:&quot;entityRelationEdgeStyle&quot;,&quot;startArrow&quot;:&quot;none&quot;,&quot;endArrow&quot;:&quot;none&quot;,&quot;segment&quot;:10,&quot;curved&quot;:1};fontSize=16;" vertex="1" parent="1">
          <mxGeometry x="426" y="1567" width="71" height="35" as="geometry" />
        </mxCell>
        <mxCell id="2BLuXLSd1eojTHQWstAA-91" value="" style="edgeStyle=entityRelationEdgeStyle;startArrow=none;endArrow=none;segment=10;curved=1;rounded=0;dashed=1;fontSize=16;exitX=0.5;exitY=1;exitDx=0;exitDy=0;entryX=0.5;entryY=0;entryDx=0;entryDy=0;" edge="1" target="2BLuXLSd1eojTHQWstAA-90" parent="1" source="2BLuXLSd1eojTHQWstAA-72">
          <mxGeometry relative="1" as="geometry">
            <mxPoint x="332" y="1501" as="sourcePoint" />
          </mxGeometry>
        </mxCell>
        <mxCell id="2BLuXLSd1eojTHQWstAA-92" value="文件管理" style="whiteSpace=wrap;html=1;rounded=1;arcSize=50;align=center;verticalAlign=middle;strokeWidth=1;autosize=1;spacing=4;treeFolding=0;treeMoving=1;newEdgeStyle={&quot;edgeStyle&quot;:&quot;entityRelationEdgeStyle&quot;,&quot;startArrow&quot;:&quot;none&quot;,&quot;endArrow&quot;:&quot;none&quot;,&quot;segment&quot;:10,&quot;curved&quot;:1};fontSize=16;" vertex="1" parent="1">
          <mxGeometry x="222" y="1557" width="121" height="35" as="geometry" />
        </mxCell>
        <mxCell id="2BLuXLSd1eojTHQWstAA-93" value="" style="edgeStyle=entityRelationEdgeStyle;startArrow=none;endArrow=none;segment=10;curved=1;rounded=0;dashed=1;fontSize=16;exitX=0;exitY=1;exitDx=0;exitDy=0;" edge="1" target="2BLuXLSd1eojTHQWstAA-92" parent="1" source="2BLuXLSd1eojTHQWstAA-72">
          <mxGeometry relative="1" as="geometry">
            <mxPoint x="160" y="1646" as="sourcePoint" />
          </mxGeometry>
        </mxCell>
        <mxCell id="2BLuXLSd1eojTHQWstAA-94" value="创建文件：create" style="whiteSpace=wrap;html=1;shape=partialRectangle;top=0;left=0;bottom=1;right=0;points=[[0,1],[1,1]];fillColor=none;align=center;verticalAlign=bottom;routingCenterY=0.5;snapToPoint=1;recursiveResize=0;autosize=1;treeFolding=0;treeMoving=1;newEdgeStyle={&quot;edgeStyle&quot;:&quot;entityRelationEdgeStyle&quot;,&quot;startArrow&quot;:&quot;none&quot;,&quot;endArrow&quot;:&quot;none&quot;,&quot;segment&quot;:10,&quot;curved&quot;:1};fontSize=16;" vertex="1" parent="1">
          <mxGeometry x="31" y="1483" width="161" height="31" as="geometry" />
        </mxCell>
        <mxCell id="2BLuXLSd1eojTHQWstAA-95" value="" style="edgeStyle=entityRelationEdgeStyle;startArrow=none;endArrow=none;segment=10;curved=1;rounded=0;dashed=1;fontSize=16;exitX=0;exitY=0.5;exitDx=0;exitDy=0;" edge="1" target="2BLuXLSd1eojTHQWstAA-94" parent="1" source="2BLuXLSd1eojTHQWstAA-92">
          <mxGeometry relative="1" as="geometry">
            <mxPoint x="214" y="1573.75" as="sourcePoint" />
          </mxGeometry>
        </mxCell>
        <mxCell id="2BLuXLSd1eojTHQWstAA-97" value="创建套接字：socket" style="whiteSpace=wrap;html=1;shape=partialRectangle;top=0;left=0;bottom=1;right=0;points=[[0,1],[1,1]];fillColor=none;align=center;verticalAlign=bottom;routingCenterY=0.5;snapToPoint=1;recursiveResize=0;autosize=1;treeFolding=0;treeMoving=1;newEdgeStyle={&quot;edgeStyle&quot;:&quot;entityRelationEdgeStyle&quot;,&quot;startArrow&quot;:&quot;none&quot;,&quot;endArrow&quot;:&quot;none&quot;,&quot;segment&quot;:10,&quot;curved&quot;:1};fontSize=16;" vertex="1" parent="1">
          <mxGeometry x="725.5" y="1512" width="164.5" height="31" as="geometry" />
        </mxCell>
        <mxCell id="2BLuXLSd1eojTHQWstAA-98" value="" style="edgeStyle=entityRelationEdgeStyle;startArrow=none;endArrow=none;segment=10;curved=1;rounded=0;dashed=1;fontSize=16;exitX=1;exitY=0.5;exitDx=0;exitDy=0;" edge="1" target="2BLuXLSd1eojTHQWstAA-97" parent="1" source="2BLuXLSd1eojTHQWstAA-88">
          <mxGeometry relative="1" as="geometry">
            <mxPoint x="660" y="1698" as="sourcePoint" />
          </mxGeometry>
        </mxCell>
        <mxCell id="2BLuXLSd1eojTHQWstAA-99" value="打开文件：open" style="whiteSpace=wrap;html=1;shape=partialRectangle;top=0;left=0;bottom=1;right=0;points=[[0,1],[1,1]];fillColor=none;align=center;verticalAlign=bottom;routingCenterY=0.5;snapToPoint=1;recursiveResize=0;autosize=1;treeFolding=0;treeMoving=1;newEdgeStyle={&quot;edgeStyle&quot;:&quot;entityRelationEdgeStyle&quot;,&quot;startArrow&quot;:&quot;none&quot;,&quot;endArrow&quot;:&quot;none&quot;,&quot;segment&quot;:10,&quot;curved&quot;:1};fontSize=16;" vertex="1" parent="1">
          <mxGeometry x="31" y="1514" width="151" height="31" as="geometry" />
        </mxCell>
        <mxCell id="2BLuXLSd1eojTHQWstAA-100" value="" style="edgeStyle=entityRelationEdgeStyle;startArrow=none;endArrow=none;segment=10;curved=1;rounded=0;dashed=1;fontSize=16;exitX=0;exitY=0.5;exitDx=0;exitDy=0;" edge="1" parent="1" target="2BLuXLSd1eojTHQWstAA-99" source="2BLuXLSd1eojTHQWstAA-92">
          <mxGeometry relative="1" as="geometry">
            <mxPoint x="208.25" y="1667.5" as="sourcePoint" />
          </mxGeometry>
        </mxCell>
        <mxCell id="2BLuXLSd1eojTHQWstAA-104" style="edgeStyle=orthogonalEdgeStyle;curved=1;rounded=0;orthogonalLoop=1;jettySize=auto;html=1;exitX=1;exitY=1;exitDx=0;exitDy=0;dashed=1;fontSize=16;startArrow=none;startFill=0;endArrow=none;endFill=0;" edge="1" parent="1" source="2BLuXLSd1eojTHQWstAA-101">
          <mxGeometry relative="1" as="geometry">
            <mxPoint x="219.5" y="1571" as="targetPoint" />
            <Array as="points">
              <mxPoint x="178" y="1571" />
            </Array>
          </mxGeometry>
        </mxCell>
        <mxCell id="2BLuXLSd1eojTHQWstAA-101" value="读取文件：read" style="whiteSpace=wrap;html=1;shape=partialRectangle;top=0;left=0;bottom=1;right=0;points=[[0,1],[1,1]];fillColor=none;align=center;verticalAlign=bottom;routingCenterY=0.5;snapToPoint=1;recursiveResize=0;autosize=1;treeFolding=0;treeMoving=1;newEdgeStyle={&quot;edgeStyle&quot;:&quot;entityRelationEdgeStyle&quot;,&quot;startArrow&quot;:&quot;none&quot;,&quot;endArrow&quot;:&quot;none&quot;,&quot;segment&quot;:10,&quot;curved&quot;:1};fontSize=16;" vertex="1" parent="1">
          <mxGeometry x="31" y="1553" width="147" height="31" as="geometry" />
        </mxCell>
        <mxCell id="2BLuXLSd1eojTHQWstAA-105" style="edgeStyle=orthogonalEdgeStyle;curved=1;rounded=0;orthogonalLoop=1;jettySize=auto;html=1;entryX=0;entryY=0.5;entryDx=0;entryDy=0;dashed=1;fontSize=16;startArrow=none;startFill=0;endArrow=none;endFill=0;" edge="1" parent="1" source="2BLuXLSd1eojTHQWstAA-102" target="2BLuXLSd1eojTHQWstAA-92">
          <mxGeometry relative="1" as="geometry" />
        </mxCell>
        <mxCell id="2BLuXLSd1eojTHQWstAA-102" value="写入文件：write" style="whiteSpace=wrap;html=1;shape=partialRectangle;top=0;left=0;bottom=1;right=0;points=[[0,1],[1,1]];fillColor=none;align=center;verticalAlign=bottom;routingCenterY=0.5;snapToPoint=1;recursiveResize=0;autosize=1;treeFolding=0;treeMoving=1;newEdgeStyle={&quot;edgeStyle&quot;:&quot;entityRelationEdgeStyle&quot;,&quot;startArrow&quot;:&quot;none&quot;,&quot;endArrow&quot;:&quot;none&quot;,&quot;segment&quot;:10,&quot;curved&quot;:1};fontSize=16;" vertex="1" parent="1">
          <mxGeometry x="31" y="1589" width="149" height="31" as="geometry" />
        </mxCell>
        <mxCell id="2BLuXLSd1eojTHQWstAA-106" style="edgeStyle=orthogonalEdgeStyle;curved=1;rounded=0;orthogonalLoop=1;jettySize=auto;html=1;entryX=0;entryY=0.5;entryDx=0;entryDy=0;dashed=1;fontSize=16;startArrow=none;startFill=0;endArrow=none;endFill=0;" edge="1" parent="1" source="2BLuXLSd1eojTHQWstAA-103" target="2BLuXLSd1eojTHQWstAA-92">
          <mxGeometry relative="1" as="geometry" />
        </mxCell>
        <mxCell id="2BLuXLSd1eojTHQWstAA-103" value="关闭文件：close" style="whiteSpace=wrap;html=1;shape=partialRectangle;top=0;left=0;bottom=1;right=0;points=[[0,1],[1,1]];fillColor=none;align=center;verticalAlign=bottom;routingCenterY=0.5;snapToPoint=1;recursiveResize=0;autosize=1;treeFolding=0;treeMoving=1;newEdgeStyle={&quot;edgeStyle&quot;:&quot;entityRelationEdgeStyle&quot;,&quot;startArrow&quot;:&quot;none&quot;,&quot;endArrow&quot;:&quot;none&quot;,&quot;segment&quot;:10,&quot;curved&quot;:1};fontSize=16;" vertex="1" parent="1">
          <mxGeometry x="32" y="1632.5" width="152" height="31" as="geometry" />
        </mxCell>
        <mxCell id="2BLuXLSd1eojTHQWstAA-114" style="edgeStyle=orthogonalEdgeStyle;curved=1;rounded=0;orthogonalLoop=1;jettySize=auto;html=1;entryX=1;entryY=0.5;entryDx=0;entryDy=0;dashed=1;fontSize=16;startArrow=none;startFill=0;endArrow=none;endFill=0;" edge="1" parent="1" source="2BLuXLSd1eojTHQWstAA-108" target="2BLuXLSd1eojTHQWstAA-88">
          <mxGeometry relative="1" as="geometry">
            <Array as="points">
              <mxPoint x="731" y="1585" />
            </Array>
          </mxGeometry>
        </mxCell>
        <mxCell id="2BLuXLSd1eojTHQWstAA-108" value="端口绑定：bind" style="whiteSpace=wrap;html=1;shape=partialRectangle;top=0;left=0;bottom=1;right=0;points=[[0,1],[1,1]];fillColor=none;align=center;verticalAlign=bottom;routingCenterY=0.5;snapToPoint=1;recursiveResize=0;autosize=1;treeFolding=0;treeMoving=1;newEdgeStyle={&quot;edgeStyle&quot;:&quot;entityRelationEdgeStyle&quot;,&quot;startArrow&quot;:&quot;none&quot;,&quot;endArrow&quot;:&quot;none&quot;,&quot;segment&quot;:10,&quot;curved&quot;:1};fontSize=16;" vertex="1" parent="1">
          <mxGeometry x="730" y="1549" width="145" height="31" as="geometry" />
        </mxCell>
        <mxCell id="2BLuXLSd1eojTHQWstAA-116" style="edgeStyle=orthogonalEdgeStyle;curved=1;rounded=0;orthogonalLoop=1;jettySize=auto;html=1;entryX=1;entryY=0.5;entryDx=0;entryDy=0;dashed=1;fontSize=16;startArrow=none;startFill=0;endArrow=none;endFill=0;" edge="1" parent="1" source="2BLuXLSd1eojTHQWstAA-111" target="2BLuXLSd1eojTHQWstAA-88">
          <mxGeometry relative="1" as="geometry" />
        </mxCell>
        <mxCell id="2BLuXLSd1eojTHQWstAA-111" value="接收数据：accept" style="whiteSpace=wrap;html=1;shape=partialRectangle;top=0;left=0;bottom=1;right=0;points=[[0,1],[1,1]];fillColor=none;align=center;verticalAlign=bottom;routingCenterY=0.5;snapToPoint=1;recursiveResize=0;autosize=1;treeFolding=0;treeMoving=1;newEdgeStyle={&quot;edgeStyle&quot;:&quot;entityRelationEdgeStyle&quot;,&quot;startArrow&quot;:&quot;none&quot;,&quot;endArrow&quot;:&quot;none&quot;,&quot;segment&quot;:10,&quot;curved&quot;:1};fontSize=16;" vertex="1" parent="1">
          <mxGeometry x="729" y="1624" width="158" height="31" as="geometry" />
        </mxCell>
        <mxCell id="2BLuXLSd1eojTHQWstAA-117" style="edgeStyle=orthogonalEdgeStyle;curved=1;rounded=0;orthogonalLoop=1;jettySize=auto;html=1;dashed=1;fontSize=16;startArrow=none;startFill=0;endArrow=none;endFill=0;exitX=0;exitY=1;exitDx=0;exitDy=0;" edge="1" parent="1" source="2BLuXLSd1eojTHQWstAA-112">
          <mxGeometry relative="1" as="geometry">
            <mxPoint x="679" y="1585" as="targetPoint" />
            <Array as="points">
              <mxPoint x="729" y="1688" />
              <mxPoint x="701" y="1688" />
              <mxPoint x="701" y="1585" />
            </Array>
          </mxGeometry>
        </mxCell>
        <mxCell id="2BLuXLSd1eojTHQWstAA-112" value="建立链接：connect" style="whiteSpace=wrap;html=1;shape=partialRectangle;top=0;left=0;bottom=1;right=0;points=[[0,1],[1,1]];fillColor=none;align=center;verticalAlign=bottom;routingCenterY=0.5;snapToPoint=1;recursiveResize=0;autosize=1;treeFolding=0;treeMoving=1;newEdgeStyle={&quot;edgeStyle&quot;:&quot;entityRelationEdgeStyle&quot;,&quot;startArrow&quot;:&quot;none&quot;,&quot;endArrow&quot;:&quot;none&quot;,&quot;segment&quot;:10,&quot;curved&quot;:1};fontSize=16;" vertex="1" parent="1">
          <mxGeometry x="729.25" y="1659" width="171" height="31" as="geometry" />
        </mxCell>
        <mxCell id="2BLuXLSd1eojTHQWstAA-115" style="edgeStyle=orthogonalEdgeStyle;curved=1;rounded=0;orthogonalLoop=1;jettySize=auto;html=1;entryX=1;entryY=0.5;entryDx=0;entryDy=0;dashed=1;fontSize=16;startArrow=none;startFill=0;endArrow=none;endFill=0;" edge="1" parent="1" source="2BLuXLSd1eojTHQWstAA-113" target="2BLuXLSd1eojTHQWstAA-88">
          <mxGeometry relative="1" as="geometry" />
        </mxCell>
        <mxCell id="2BLuXLSd1eojTHQWstAA-113" value="监听：listen" style="whiteSpace=wrap;html=1;shape=partialRectangle;top=0;left=0;bottom=1;right=0;points=[[0,1],[1,1]];fillColor=none;align=center;verticalAlign=bottom;routingCenterY=0.5;snapToPoint=1;recursiveResize=0;autosize=1;treeFolding=0;treeMoving=1;newEdgeStyle={&quot;edgeStyle&quot;:&quot;entityRelationEdgeStyle&quot;,&quot;startArrow&quot;:&quot;none&quot;,&quot;endArrow&quot;:&quot;none&quot;,&quot;segment&quot;:10,&quot;curved&quot;:1};fontSize=16;" vertex="1" parent="1">
          <mxGeometry x="732" y="1587" width="120" height="31" as="geometry" />
        </mxCell>
        <mxCell id="2BLuXLSd1eojTHQWstAA-118" value="发送信号：kill" style="whiteSpace=wrap;html=1;shape=partialRectangle;top=0;left=0;bottom=1;right=0;points=[[0,1],[1,1]];fillColor=none;align=center;verticalAlign=bottom;routingCenterY=0.5;snapToPoint=1;recursiveResize=0;autosize=1;treeFolding=0;treeMoving=1;newEdgeStyle={&quot;edgeStyle&quot;:&quot;entityRelationEdgeStyle&quot;,&quot;startArrow&quot;:&quot;none&quot;,&quot;endArrow&quot;:&quot;none&quot;,&quot;segment&quot;:10,&quot;curved&quot;:1};fontSize=16;" vertex="1" parent="1">
          <mxGeometry x="533" y="1632.5" width="125" height="31" as="geometry" />
        </mxCell>
        <mxCell id="2BLuXLSd1eojTHQWstAA-119" value="" style="edgeStyle=entityRelationEdgeStyle;startArrow=none;endArrow=none;segment=10;curved=1;rounded=0;dashed=1;fontSize=16;" edge="1" target="2BLuXLSd1eojTHQWstAA-118" parent="1" source="2BLuXLSd1eojTHQWstAA-90">
          <mxGeometry relative="1" as="geometry">
            <mxPoint x="486" y="1701" as="sourcePoint" />
          </mxGeometry>
        </mxCell>
        <mxCell id="2BLuXLSd1eojTHQWstAA-121" style="edgeStyle=orthogonalEdgeStyle;curved=1;rounded=0;orthogonalLoop=1;jettySize=auto;html=1;entryX=0;entryY=0.5;entryDx=0;entryDy=0;dashed=1;fontSize=16;startArrow=none;startFill=0;endArrow=none;endFill=0;exitX=1;exitY=1;exitDx=0;exitDy=0;" edge="1" parent="1" source="2BLuXLSd1eojTHQWstAA-120" target="2BLuXLSd1eojTHQWstAA-90">
          <mxGeometry relative="1" as="geometry">
            <Array as="points">
              <mxPoint x="400" y="1664" />
              <mxPoint x="400" y="1585" />
            </Array>
          </mxGeometry>
        </mxCell>
        <mxCell id="2BLuXLSd1eojTHQWstAA-120" value="处理信号：sigaction" style="whiteSpace=wrap;html=1;shape=partialRectangle;top=0;left=0;bottom=1;right=0;points=[[0,1],[1,1]];fillColor=none;align=center;verticalAlign=bottom;routingCenterY=0.5;snapToPoint=1;recursiveResize=0;autosize=1;treeFolding=0;treeMoving=1;newEdgeStyle={&quot;edgeStyle&quot;:&quot;entityRelationEdgeStyle&quot;,&quot;startArrow&quot;:&quot;none&quot;,&quot;endArrow&quot;:&quot;none&quot;,&quot;segment&quot;:10,&quot;curved&quot;:1};fontSize=16;" vertex="1" parent="1">
          <mxGeometry x="235" y="1632.5" width="151" height="31" as="geometry" />
        </mxCell>
        <mxCell id="2BLuXLSd1eojTHQWstAA-123" value="&lt;br&gt;&lt;br&gt;用户空间（3G）" style="rounded=0;whiteSpace=wrap;html=1;sketch=0;fontSize=16;fillColor=default;" vertex="1" parent="1">
          <mxGeometry x="94" y="1789" width="127" height="233" as="geometry" />
        </mxCell>
        <mxCell id="2BLuXLSd1eojTHQWstAA-124" value="内核空间（1G）" style="rounded=0;whiteSpace=wrap;html=1;sketch=0;fontSize=16;fillColor=default;" vertex="1" parent="1">
          <mxGeometry x="94" y="1789" width="127" height="60" as="geometry" />
        </mxCell>
        <mxCell id="2BLuXLSd1eojTHQWstAA-125" value="32位地址空间" style="text;html=1;strokeColor=none;fillColor=none;align=center;verticalAlign=middle;whiteSpace=wrap;rounded=0;sketch=0;fontSize=16;" vertex="1" parent="1">
          <mxGeometry x="99" y="2028" width="108" height="30" as="geometry" />
        </mxCell>
        <mxCell id="2BLuXLSd1eojTHQWstAA-126" value="未定义" style="rounded=0;whiteSpace=wrap;html=1;sketch=0;fontSize=16;fillColor=default;" vertex="1" parent="1">
          <mxGeometry x="306.5" y="1791" width="127" height="233" as="geometry" />
        </mxCell>
        <mxCell id="2BLuXLSd1eojTHQWstAA-127" value="内核空间（128T）" style="rounded=0;whiteSpace=wrap;html=1;sketch=0;fontSize=16;fillColor=default;" vertex="1" parent="1">
          <mxGeometry x="306.5" y="1791" width="127" height="60" as="geometry" />
        </mxCell>
        <mxCell id="2BLuXLSd1eojTHQWstAA-128" value="64位地址空间" style="text;html=1;strokeColor=none;fillColor=none;align=center;verticalAlign=middle;whiteSpace=wrap;rounded=0;sketch=0;fontSize=16;" vertex="1" parent="1">
          <mxGeometry x="311.5" y="2030" width="108" height="30" as="geometry" />
        </mxCell>
        <mxCell id="2BLuXLSd1eojTHQWstAA-129" value="内核空间（128T）" style="rounded=0;whiteSpace=wrap;html=1;sketch=0;fontSize=16;fillColor=default;" vertex="1" parent="1">
          <mxGeometry x="306.5" y="1964" width="127" height="60" as="geometry" />
        </mxCell>
        <mxCell id="2BLuXLSd1eojTHQWstAA-130" value="" style="rounded=0;whiteSpace=wrap;html=1;sketch=0;fontSize=14;fillColor=default;" vertex="1" parent="1">
          <mxGeometry x="94" y="2170" width="120" height="278" as="geometry" />
        </mxCell>
        <mxCell id="2BLuXLSd1eojTHQWstAA-133" value="" style="endArrow=none;html=1;rounded=0;fontSize=14;curved=1;exitX=0;exitY=0.25;exitDx=0;exitDy=0;entryX=1;entryY=0.25;entryDx=0;entryDy=0;" edge="1" parent="1" source="2BLuXLSd1eojTHQWstAA-130" target="2BLuXLSd1eojTHQWstAA-130">
          <mxGeometry width="50" height="50" relative="1" as="geometry">
            <mxPoint x="404" y="2380" as="sourcePoint" />
            <mxPoint x="454" y="2330" as="targetPoint" />
          </mxGeometry>
        </mxCell>
        <mxCell id="2BLuXLSd1eojTHQWstAA-134" value="" style="endArrow=none;html=1;rounded=0;fontSize=14;curved=1;exitX=0;exitY=0.25;exitDx=0;exitDy=0;entryX=1;entryY=0.25;entryDx=0;entryDy=0;" edge="1" parent="1">
          <mxGeometry width="50" height="50" relative="1" as="geometry">
            <mxPoint x="93" y="2275" as="sourcePoint" />
            <mxPoint x="213" y="2275" as="targetPoint" />
          </mxGeometry>
        </mxCell>
        <mxCell id="2BLuXLSd1eojTHQWstAA-135" value="" style="endArrow=none;html=1;rounded=0;fontSize=14;curved=1;exitX=0;exitY=0.25;exitDx=0;exitDy=0;entryX=1;entryY=0.25;entryDx=0;entryDy=0;" edge="1" parent="1">
          <mxGeometry width="50" height="50" relative="1" as="geometry">
            <mxPoint x="94" y="2313" as="sourcePoint" />
            <mxPoint x="214" y="2313" as="targetPoint" />
          </mxGeometry>
        </mxCell>
        <mxCell id="2BLuXLSd1eojTHQWstAA-136" value="" style="endArrow=none;html=1;rounded=0;fontSize=14;curved=1;exitX=0;exitY=0.25;exitDx=0;exitDy=0;entryX=1;entryY=0.25;entryDx=0;entryDy=0;" edge="1" parent="1">
          <mxGeometry width="50" height="50" relative="1" as="geometry">
            <mxPoint x="94" y="2347" as="sourcePoint" />
            <mxPoint x="214" y="2347" as="targetPoint" />
          </mxGeometry>
        </mxCell>
        <mxCell id="2BLuXLSd1eojTHQWstAA-137" value="" style="endArrow=none;html=1;rounded=0;fontSize=14;curved=1;exitX=0;exitY=0.25;exitDx=0;exitDy=0;entryX=1;entryY=0.25;entryDx=0;entryDy=0;" edge="1" parent="1">
          <mxGeometry width="50" height="50" relative="1" as="geometry">
            <mxPoint x="94" y="2382" as="sourcePoint" />
            <mxPoint x="214" y="2382" as="targetPoint" />
          </mxGeometry>
        </mxCell>
        <mxCell id="2BLuXLSd1eojTHQWstAA-138" value="" style="endArrow=none;html=1;rounded=0;fontSize=14;curved=1;exitX=0;exitY=0.25;exitDx=0;exitDy=0;entryX=1;entryY=0.25;entryDx=0;entryDy=0;" edge="1" parent="1">
          <mxGeometry width="50" height="50" relative="1" as="geometry">
            <mxPoint x="94" y="2413" as="sourcePoint" />
            <mxPoint x="214" y="2413" as="targetPoint" />
          </mxGeometry>
        </mxCell>
        <mxCell id="2BLuXLSd1eojTHQWstAA-139" value="虚拟内存" style="text;html=1;strokeColor=none;fillColor=none;align=center;verticalAlign=middle;whiteSpace=wrap;rounded=0;sketch=0;fontSize=14;" vertex="1" parent="1">
          <mxGeometry x="124" y="2193" width="60" height="30" as="geometry" />
        </mxCell>
        <mxCell id="2BLuXLSd1eojTHQWstAA-140" value="" style="rounded=0;whiteSpace=wrap;html=1;sketch=0;fontSize=14;fillColor=default;" vertex="1" parent="1">
          <mxGeometry x="454.5" y="2170" width="120" height="278" as="geometry" />
        </mxCell>
        <mxCell id="2BLuXLSd1eojTHQWstAA-141" value="" style="endArrow=none;html=1;rounded=0;fontSize=14;curved=1;exitX=0;exitY=0.25;exitDx=0;exitDy=0;entryX=1;entryY=0.25;entryDx=0;entryDy=0;" edge="1" parent="1" source="2BLuXLSd1eojTHQWstAA-140" target="2BLuXLSd1eojTHQWstAA-140">
          <mxGeometry width="50" height="50" relative="1" as="geometry">
            <mxPoint x="764.5" y="2380" as="sourcePoint" />
            <mxPoint x="814.5" y="2330" as="targetPoint" />
          </mxGeometry>
        </mxCell>
        <mxCell id="2BLuXLSd1eojTHQWstAA-142" value="" style="endArrow=none;html=1;rounded=0;fontSize=14;curved=1;exitX=0;exitY=0.25;exitDx=0;exitDy=0;entryX=1;entryY=0.25;entryDx=0;entryDy=0;" edge="1" parent="1">
          <mxGeometry width="50" height="50" relative="1" as="geometry">
            <mxPoint x="453.5" y="2275" as="sourcePoint" />
            <mxPoint x="573.5" y="2275" as="targetPoint" />
          </mxGeometry>
        </mxCell>
        <mxCell id="2BLuXLSd1eojTHQWstAA-143" value="" style="endArrow=none;html=1;rounded=0;fontSize=14;curved=1;exitX=0;exitY=0.25;exitDx=0;exitDy=0;entryX=1;entryY=0.25;entryDx=0;entryDy=0;" edge="1" parent="1">
          <mxGeometry width="50" height="50" relative="1" as="geometry">
            <mxPoint x="454.5" y="2313" as="sourcePoint" />
            <mxPoint x="574.5" y="2313" as="targetPoint" />
          </mxGeometry>
        </mxCell>
        <mxCell id="2BLuXLSd1eojTHQWstAA-144" value="" style="endArrow=none;html=1;rounded=0;fontSize=14;curved=1;exitX=0;exitY=0.25;exitDx=0;exitDy=0;entryX=1;entryY=0.25;entryDx=0;entryDy=0;" edge="1" parent="1">
          <mxGeometry width="50" height="50" relative="1" as="geometry">
            <mxPoint x="454.5" y="2347" as="sourcePoint" />
            <mxPoint x="574.5" y="2347" as="targetPoint" />
          </mxGeometry>
        </mxCell>
        <mxCell id="2BLuXLSd1eojTHQWstAA-145" value="" style="endArrow=none;html=1;rounded=0;fontSize=14;curved=1;exitX=0;exitY=0.25;exitDx=0;exitDy=0;entryX=1;entryY=0.25;entryDx=0;entryDy=0;" edge="1" parent="1">
          <mxGeometry width="50" height="50" relative="1" as="geometry">
            <mxPoint x="454.5" y="2382" as="sourcePoint" />
            <mxPoint x="574.5" y="2382" as="targetPoint" />
          </mxGeometry>
        </mxCell>
        <mxCell id="2BLuXLSd1eojTHQWstAA-146" value="" style="endArrow=none;html=1;rounded=0;fontSize=14;curved=1;exitX=0;exitY=0.25;exitDx=0;exitDy=0;entryX=1;entryY=0.25;entryDx=0;entryDy=0;" edge="1" parent="1">
          <mxGeometry width="50" height="50" relative="1" as="geometry">
            <mxPoint x="454.5" y="2413" as="sourcePoint" />
            <mxPoint x="574.5" y="2413" as="targetPoint" />
          </mxGeometry>
        </mxCell>
        <mxCell id="2BLuXLSd1eojTHQWstAA-147" value="物理内存" style="text;html=1;strokeColor=none;fillColor=none;align=center;verticalAlign=middle;whiteSpace=wrap;rounded=0;sketch=0;fontSize=14;" vertex="1" parent="1">
          <mxGeometry x="484.5" y="2193" width="60" height="30" as="geometry" />
        </mxCell>
        <mxCell id="2BLuXLSd1eojTHQWstAA-148" value="" style="rounded=0;whiteSpace=wrap;html=1;sketch=0;fontSize=14;fillColor=default;" vertex="1" parent="1">
          <mxGeometry x="274" y="2279" width="120" height="60" as="geometry" />
        </mxCell>
        <mxCell id="2BLuXLSd1eojTHQWstAA-150" value="" style="endArrow=none;html=1;rounded=0;fontSize=14;curved=1;exitX=0;exitY=0.25;exitDx=0;exitDy=0;entryX=1;entryY=0.25;entryDx=0;entryDy=0;" edge="1" parent="1">
          <mxGeometry width="50" height="50" relative="1" as="geometry">
            <mxPoint x="274" y="2308.5" as="sourcePoint" />
            <mxPoint x="394" y="2308.5" as="targetPoint" />
          </mxGeometry>
        </mxCell>
        <mxCell id="2BLuXLSd1eojTHQWstAA-151" value="1" style="text;html=1;strokeColor=none;fillColor=none;align=center;verticalAlign=middle;whiteSpace=wrap;rounded=0;sketch=0;fontSize=14;" vertex="1" parent="1">
          <mxGeometry x="129" y="2244" width="60" height="30" as="geometry" />
        </mxCell>
        <mxCell id="2BLuXLSd1eojTHQWstAA-153" value="2" style="text;html=1;strokeColor=none;fillColor=none;align=center;verticalAlign=middle;whiteSpace=wrap;rounded=0;sketch=0;fontSize=14;" vertex="1" parent="1">
          <mxGeometry x="129" y="2283" width="60" height="30" as="geometry" />
        </mxCell>
        <mxCell id="2BLuXLSd1eojTHQWstAA-154" value="3" style="text;html=1;strokeColor=none;fillColor=none;align=center;verticalAlign=middle;whiteSpace=wrap;rounded=0;sketch=0;fontSize=14;" vertex="1" parent="1">
          <mxGeometry x="129" y="2319" width="60" height="30" as="geometry" />
        </mxCell>
        <mxCell id="2BLuXLSd1eojTHQWstAA-155" value="4" style="text;html=1;strokeColor=none;fillColor=none;align=center;verticalAlign=middle;whiteSpace=wrap;rounded=0;sketch=0;fontSize=14;" vertex="1" parent="1">
          <mxGeometry x="127.5" y="2349" width="60" height="30" as="geometry" />
        </mxCell>
        <mxCell id="2BLuXLSd1eojTHQWstAA-157" value="5" style="text;html=1;strokeColor=none;fillColor=none;align=center;verticalAlign=middle;whiteSpace=wrap;rounded=0;sketch=0;fontSize=14;" vertex="1" parent="1">
          <mxGeometry x="127.5" y="2383" width="60" height="30" as="geometry" />
        </mxCell>
        <mxCell id="2BLuXLSd1eojTHQWstAA-158" value="" style="rounded=0;whiteSpace=wrap;html=1;sketch=0;fontSize=14;fillColor=default;" vertex="1" parent="1">
          <mxGeometry x="795" y="2170" width="120" height="278" as="geometry" />
        </mxCell>
        <mxCell id="2BLuXLSd1eojTHQWstAA-159" value="" style="endArrow=none;html=1;rounded=0;fontSize=14;curved=1;exitX=0;exitY=0.25;exitDx=0;exitDy=0;entryX=1;entryY=0.25;entryDx=0;entryDy=0;" edge="1" parent="1" source="2BLuXLSd1eojTHQWstAA-158" target="2BLuXLSd1eojTHQWstAA-158">
          <mxGeometry width="50" height="50" relative="1" as="geometry">
            <mxPoint x="1105" y="2380" as="sourcePoint" />
            <mxPoint x="1155" y="2330" as="targetPoint" />
          </mxGeometry>
        </mxCell>
        <mxCell id="2BLuXLSd1eojTHQWstAA-160" value="" style="endArrow=none;html=1;rounded=0;fontSize=14;curved=1;exitX=0;exitY=0.25;exitDx=0;exitDy=0;entryX=1;entryY=0.25;entryDx=0;entryDy=0;" edge="1" parent="1">
          <mxGeometry width="50" height="50" relative="1" as="geometry">
            <mxPoint x="794" y="2275" as="sourcePoint" />
            <mxPoint x="914" y="2275" as="targetPoint" />
          </mxGeometry>
        </mxCell>
        <mxCell id="2BLuXLSd1eojTHQWstAA-161" value="" style="endArrow=none;html=1;rounded=0;fontSize=14;curved=1;exitX=0;exitY=0.25;exitDx=0;exitDy=0;entryX=1;entryY=0.25;entryDx=0;entryDy=0;" edge="1" parent="1">
          <mxGeometry width="50" height="50" relative="1" as="geometry">
            <mxPoint x="795" y="2313" as="sourcePoint" />
            <mxPoint x="915" y="2313" as="targetPoint" />
          </mxGeometry>
        </mxCell>
        <mxCell id="2BLuXLSd1eojTHQWstAA-162" value="" style="endArrow=none;html=1;rounded=0;fontSize=14;curved=1;exitX=0;exitY=0.25;exitDx=0;exitDy=0;entryX=1;entryY=0.25;entryDx=0;entryDy=0;" edge="1" parent="1">
          <mxGeometry width="50" height="50" relative="1" as="geometry">
            <mxPoint x="795" y="2347" as="sourcePoint" />
            <mxPoint x="915" y="2347" as="targetPoint" />
          </mxGeometry>
        </mxCell>
        <mxCell id="2BLuXLSd1eojTHQWstAA-163" value="" style="endArrow=none;html=1;rounded=0;fontSize=14;curved=1;exitX=0;exitY=0.25;exitDx=0;exitDy=0;entryX=1;entryY=0.25;entryDx=0;entryDy=0;" edge="1" parent="1">
          <mxGeometry width="50" height="50" relative="1" as="geometry">
            <mxPoint x="795" y="2382" as="sourcePoint" />
            <mxPoint x="915" y="2382" as="targetPoint" />
          </mxGeometry>
        </mxCell>
        <mxCell id="2BLuXLSd1eojTHQWstAA-164" value="" style="endArrow=none;html=1;rounded=0;fontSize=14;curved=1;exitX=0;exitY=0.25;exitDx=0;exitDy=0;entryX=1;entryY=0.25;entryDx=0;entryDy=0;" edge="1" parent="1">
          <mxGeometry width="50" height="50" relative="1" as="geometry">
            <mxPoint x="795" y="2413" as="sourcePoint" />
            <mxPoint x="915" y="2413" as="targetPoint" />
          </mxGeometry>
        </mxCell>
        <mxCell id="2BLuXLSd1eojTHQWstAA-165" value="虚拟内存" style="text;html=1;strokeColor=none;fillColor=none;align=center;verticalAlign=middle;whiteSpace=wrap;rounded=0;sketch=0;fontSize=14;" vertex="1" parent="1">
          <mxGeometry x="825" y="2193" width="60" height="30" as="geometry" />
        </mxCell>
        <mxCell id="2BLuXLSd1eojTHQWstAA-166" value="" style="rounded=0;whiteSpace=wrap;html=1;sketch=0;fontSize=14;fillColor=default;" vertex="1" parent="1">
          <mxGeometry x="623" y="2283" width="120" height="60" as="geometry" />
        </mxCell>
        <mxCell id="2BLuXLSd1eojTHQWstAA-168" value="" style="endArrow=none;html=1;rounded=0;fontSize=14;curved=1;exitX=0;exitY=0.25;exitDx=0;exitDy=0;entryX=1;entryY=0.25;entryDx=0;entryDy=0;" edge="1" parent="1">
          <mxGeometry width="50" height="50" relative="1" as="geometry">
            <mxPoint x="623" y="2312.5" as="sourcePoint" />
            <mxPoint x="743" y="2312.5" as="targetPoint" />
          </mxGeometry>
        </mxCell>
        <mxCell id="2BLuXLSd1eojTHQWstAA-169" value="1" style="text;html=1;strokeColor=none;fillColor=none;align=center;verticalAlign=middle;whiteSpace=wrap;rounded=0;sketch=0;fontSize=14;" vertex="1" parent="1">
          <mxGeometry x="830" y="2244" width="60" height="30" as="geometry" />
        </mxCell>
        <mxCell id="2BLuXLSd1eojTHQWstAA-170" value="2" style="text;html=1;strokeColor=none;fillColor=none;align=center;verticalAlign=middle;whiteSpace=wrap;rounded=0;sketch=0;fontSize=14;" vertex="1" parent="1">
          <mxGeometry x="830" y="2283" width="60" height="30" as="geometry" />
        </mxCell>
        <mxCell id="2BLuXLSd1eojTHQWstAA-171" value="3" style="text;html=1;strokeColor=none;fillColor=none;align=center;verticalAlign=middle;whiteSpace=wrap;rounded=0;sketch=0;fontSize=14;" vertex="1" parent="1">
          <mxGeometry x="830" y="2319" width="60" height="30" as="geometry" />
        </mxCell>
        <mxCell id="2BLuXLSd1eojTHQWstAA-172" value="4" style="text;html=1;strokeColor=none;fillColor=none;align=center;verticalAlign=middle;whiteSpace=wrap;rounded=0;sketch=0;fontSize=14;" vertex="1" parent="1">
          <mxGeometry x="828.5" y="2349" width="60" height="30" as="geometry" />
        </mxCell>
        <mxCell id="2BLuXLSd1eojTHQWstAA-173" value="5" style="text;html=1;strokeColor=none;fillColor=none;align=center;verticalAlign=middle;whiteSpace=wrap;rounded=0;sketch=0;fontSize=14;" vertex="1" parent="1">
          <mxGeometry x="828.5" y="2383" width="60" height="30" as="geometry" />
        </mxCell>
        <mxCell id="2BLuXLSd1eojTHQWstAA-174" value="" style="endArrow=none;html=1;rounded=0;fontSize=14;curved=1;entryX=0;entryY=0.25;entryDx=0;entryDy=0;" edge="1" parent="1" target="2BLuXLSd1eojTHQWstAA-148">
          <mxGeometry width="50" height="50" relative="1" as="geometry">
            <mxPoint x="215" y="2257" as="sourcePoint" />
            <mxPoint x="527" y="2333" as="targetPoint" />
          </mxGeometry>
        </mxCell>
        <mxCell id="2BLuXLSd1eojTHQWstAA-175" value="1" style="text;html=1;strokeColor=none;fillColor=none;align=center;verticalAlign=middle;whiteSpace=wrap;rounded=0;sketch=0;fontSize=14;" vertex="1" parent="1">
          <mxGeometry x="484.5" y="2244" width="60" height="30" as="geometry" />
        </mxCell>
        <mxCell id="2BLuXLSd1eojTHQWstAA-176" value="2" style="text;html=1;strokeColor=none;fillColor=none;align=center;verticalAlign=middle;whiteSpace=wrap;rounded=0;sketch=0;fontSize=14;" vertex="1" parent="1">
          <mxGeometry x="484.5" y="2279" width="60" height="30" as="geometry" />
        </mxCell>
        <mxCell id="2BLuXLSd1eojTHQWstAA-179" value="进程1虚拟地址空间" style="text;html=1;strokeColor=none;fillColor=none;align=center;verticalAlign=middle;whiteSpace=wrap;rounded=0;sketch=0;fontSize=14;" vertex="1" parent="1">
          <mxGeometry x="79" y="2465" width="140" height="30" as="geometry" />
        </mxCell>
        <mxCell id="2BLuXLSd1eojTHQWstAA-180" value="进程1页表" style="text;html=1;strokeColor=none;fillColor=none;align=center;verticalAlign=middle;whiteSpace=wrap;rounded=0;sketch=0;fontSize=14;" vertex="1" parent="1">
          <mxGeometry x="259" y="2355" width="140" height="30" as="geometry" />
        </mxCell>
        <mxCell id="2BLuXLSd1eojTHQWstAA-181" value="进程2页表" style="text;html=1;strokeColor=none;fillColor=none;align=center;verticalAlign=middle;whiteSpace=wrap;rounded=0;sketch=0;fontSize=14;" vertex="1" parent="1">
          <mxGeometry x="620" y="2360" width="140" height="30" as="geometry" />
        </mxCell>
        <mxCell id="2BLuXLSd1eojTHQWstAA-182" value="进程2虚拟地址空间" style="text;html=1;strokeColor=none;fillColor=none;align=center;verticalAlign=middle;whiteSpace=wrap;rounded=0;sketch=0;fontSize=14;" vertex="1" parent="1">
          <mxGeometry x="785" y="2465" width="140" height="30" as="geometry" />
        </mxCell>
        <mxCell id="2BLuXLSd1eojTHQWstAA-183" value="1:3" style="text;html=1;strokeColor=none;fillColor=none;align=center;verticalAlign=middle;whiteSpace=wrap;rounded=0;sketch=0;fontSize=14;" vertex="1" parent="1">
          <mxGeometry x="302" y="2279" width="60" height="30" as="geometry" />
        </mxCell>
        <mxCell id="2BLuXLSd1eojTHQWstAA-184" value="3" style="text;html=1;strokeColor=none;fillColor=none;align=center;verticalAlign=middle;whiteSpace=wrap;rounded=0;sketch=0;fontSize=14;" vertex="1" parent="1">
          <mxGeometry x="484" y="2318" width="60" height="30" as="geometry" />
        </mxCell>
        <mxCell id="2BLuXLSd1eojTHQWstAA-187" value="4" style="text;html=1;strokeColor=none;fillColor=none;align=center;verticalAlign=middle;whiteSpace=wrap;rounded=0;sketch=0;fontSize=14;" vertex="1" parent="1">
          <mxGeometry x="485" y="2352" width="60" height="30" as="geometry" />
        </mxCell>
        <mxCell id="2BLuXLSd1eojTHQWstAA-188" value="5" style="text;html=1;strokeColor=none;fillColor=none;align=center;verticalAlign=middle;whiteSpace=wrap;rounded=0;sketch=0;fontSize=14;" vertex="1" parent="1">
          <mxGeometry x="485" y="2383" width="60" height="30" as="geometry" />
        </mxCell>
        <mxCell id="2BLuXLSd1eojTHQWstAA-189" value="6" style="text;html=1;strokeColor=none;fillColor=none;align=center;verticalAlign=middle;whiteSpace=wrap;rounded=0;sketch=0;fontSize=14;" vertex="1" parent="1">
          <mxGeometry x="485" y="2417" width="60" height="30" as="geometry" />
        </mxCell>
        <mxCell id="2BLuXLSd1eojTHQWstAA-190" value="" style="endArrow=none;html=1;rounded=0;fontSize=14;curved=1;entryX=-0.017;entryY=0.588;entryDx=0;entryDy=0;entryPerimeter=0;exitX=1;exitY=0.25;exitDx=0;exitDy=0;" edge="1" parent="1" source="2BLuXLSd1eojTHQWstAA-148" target="2BLuXLSd1eojTHQWstAA-140">
          <mxGeometry width="50" height="50" relative="1" as="geometry">
            <mxPoint x="222" y="2267" as="sourcePoint" />
            <mxPoint x="284" y="2304" as="targetPoint" />
          </mxGeometry>
        </mxCell>
        <mxCell id="2BLuXLSd1eojTHQWstAA-191" value="4:2" style="text;html=1;strokeColor=none;fillColor=none;align=center;verticalAlign=middle;whiteSpace=wrap;rounded=0;sketch=0;fontSize=14;" vertex="1" parent="1">
          <mxGeometry x="299" y="2311" width="60" height="30" as="geometry" />
        </mxCell>
        <mxCell id="2BLuXLSd1eojTHQWstAA-192" value="" style="endArrow=none;html=1;rounded=0;fontSize=14;curved=1;entryX=0;entryY=0.75;entryDx=0;entryDy=0;exitX=1.013;exitY=0.721;exitDx=0;exitDy=0;exitPerimeter=0;" edge="1" parent="1" source="2BLuXLSd1eojTHQWstAA-130" target="2BLuXLSd1eojTHQWstAA-148">
          <mxGeometry width="50" height="50" relative="1" as="geometry">
            <mxPoint x="222" y="2267" as="sourcePoint" />
            <mxPoint x="284" y="2304" as="targetPoint" />
          </mxGeometry>
        </mxCell>
        <mxCell id="2BLuXLSd1eojTHQWstAA-193" value="" style="endArrow=none;html=1;rounded=0;fontSize=14;curved=1;entryX=0;entryY=0.462;entryDx=0;entryDy=0;exitX=1;exitY=0.75;exitDx=0;exitDy=0;entryPerimeter=0;" edge="1" parent="1" source="2BLuXLSd1eojTHQWstAA-148" target="2BLuXLSd1eojTHQWstAA-140">
          <mxGeometry width="50" height="50" relative="1" as="geometry">
            <mxPoint x="225.55999999999995" y="2380.438" as="sourcePoint" />
            <mxPoint x="284" y="2334" as="targetPoint" />
          </mxGeometry>
        </mxCell>
        <mxCell id="2BLuXLSd1eojTHQWstAA-194" value="1:5" style="text;html=1;strokeColor=none;fillColor=none;align=center;verticalAlign=middle;whiteSpace=wrap;rounded=0;sketch=0;fontSize=14;" vertex="1" parent="1">
          <mxGeometry x="654" y="2283" width="60" height="30" as="geometry" />
        </mxCell>
        <mxCell id="2BLuXLSd1eojTHQWstAA-195" value="" style="endArrow=none;html=1;rounded=0;fontSize=14;curved=1;entryX=0;entryY=0.462;entryDx=0;entryDy=0;entryPerimeter=0;" edge="1" parent="1">
          <mxGeometry width="50" height="50" relative="1" as="geometry">
            <mxPoint x="745" y="2296" as="sourcePoint" />
            <mxPoint x="795" y="2253.436" as="targetPoint" />
          </mxGeometry>
        </mxCell>
        <mxCell id="2BLuXLSd1eojTHQWstAA-196" value="" style="endArrow=none;html=1;rounded=0;fontSize=14;curved=1;entryX=0;entryY=0.25;entryDx=0;entryDy=0;" edge="1" parent="1" target="2BLuXLSd1eojTHQWstAA-166">
          <mxGeometry width="50" height="50" relative="1" as="geometry">
            <mxPoint x="576" y="2396" as="sourcePoint" />
            <mxPoint x="805" y="2263.436" as="targetPoint" />
          </mxGeometry>
        </mxCell>
        <mxCell id="2BLuXLSd1eojTHQWstAA-197" value="" style="endArrow=none;html=1;rounded=0;fontSize=14;curved=1;entryX=-0.004;entryY=0.595;entryDx=0;entryDy=0;entryPerimeter=0;exitX=1;exitY=0.75;exitDx=0;exitDy=0;" edge="1" parent="1" source="2BLuXLSd1eojTHQWstAA-166" target="2BLuXLSd1eojTHQWstAA-158">
          <mxGeometry width="50" height="50" relative="1" as="geometry">
            <mxPoint x="755" y="2306" as="sourcePoint" />
            <mxPoint x="805" y="2263.436" as="targetPoint" />
          </mxGeometry>
        </mxCell>
        <mxCell id="2BLuXLSd1eojTHQWstAA-198" value="3:1" style="text;html=1;strokeColor=none;fillColor=none;align=center;verticalAlign=middle;whiteSpace=wrap;rounded=0;sketch=0;fontSize=14;" vertex="1" parent="1">
          <mxGeometry x="656" y="2315" width="60" height="30" as="geometry" />
        </mxCell>
        <mxCell id="2BLuXLSd1eojTHQWstAA-199" value="" style="endArrow=none;html=1;rounded=0;fontSize=14;curved=1;entryX=0;entryY=0.75;entryDx=0;entryDy=0;exitX=1;exitY=0.318;exitDx=0;exitDy=0;exitPerimeter=0;" edge="1" parent="1" source="2BLuXLSd1eojTHQWstAA-140" target="2BLuXLSd1eojTHQWstAA-166">
          <mxGeometry width="50" height="50" relative="1" as="geometry">
            <mxPoint x="753" y="2338" as="sourcePoint" />
            <mxPoint x="804.52" y="2345.41" as="targetPoint" />
          </mxGeometry>
        </mxCell>
        <mxCell id="2BLuXLSd1eojTHQWstAA-200" value="CPU" style="rounded=1;whiteSpace=wrap;html=1;sketch=0;fontSize=14;fillColor=#d5e8d4;strokeColor=#82b366;" vertex="1" parent="1">
          <mxGeometry x="97.5" y="2710" width="120" height="60" as="geometry" />
        </mxCell>
        <mxCell id="2BLuXLSd1eojTHQWstAA-201" value="18" style="ellipse;whiteSpace=wrap;html=1;aspect=fixed;rounded=1;sketch=0;fontSize=14;fillColor=#CCCCCC;" vertex="1" parent="1">
          <mxGeometry x="432.5" y="2657" width="57.5" height="57.5" as="geometry" />
        </mxCell>
        <mxCell id="2BLuXLSd1eojTHQWstAA-216" style="edgeStyle=orthogonalEdgeStyle;curved=1;rounded=0;orthogonalLoop=1;jettySize=auto;html=1;fontSize=14;startArrow=none;startFill=0;endArrow=classic;endFill=1;entryX=1;entryY=0.5;entryDx=0;entryDy=0;" edge="1" parent="1" source="2BLuXLSd1eojTHQWstAA-202" target="2BLuXLSd1eojTHQWstAA-200">
          <mxGeometry relative="1" as="geometry">
            <mxPoint x="225.5" y="2743.5" as="targetPoint" />
          </mxGeometry>
        </mxCell>
        <mxCell id="2BLuXLSd1eojTHQWstAA-202" value="5" style="ellipse;whiteSpace=wrap;html=1;aspect=fixed;rounded=1;sketch=0;fontSize=14;fillColor=#CCCCCC;" vertex="1" parent="1">
          <mxGeometry x="267.25" y="2851" width="57.5" height="57.5" as="geometry" />
        </mxCell>
        <mxCell id="2BLuXLSd1eojTHQWstAA-203" value="19" style="ellipse;whiteSpace=wrap;html=1;aspect=fixed;rounded=1;sketch=0;fontSize=14;fillColor=#CCCCCC;" vertex="1" parent="1">
          <mxGeometry x="491" y="2859" width="57.5" height="57.5" as="geometry" />
        </mxCell>
        <mxCell id="2BLuXLSd1eojTHQWstAA-204" value="9" style="ellipse;whiteSpace=wrap;html=1;aspect=fixed;rounded=1;sketch=0;fontSize=14;fillColor=#f8cecc;strokeColor=#b85450;" vertex="1" parent="1">
          <mxGeometry x="336" y="2742" width="59" height="59" as="geometry" />
        </mxCell>
        <mxCell id="2BLuXLSd1eojTHQWstAA-205" value="21" style="ellipse;whiteSpace=wrap;html=1;aspect=fixed;rounded=1;sketch=0;fontSize=14;fillColor=#f8cecc;strokeColor=#b85450;" vertex="1" parent="1">
          <mxGeometry x="537" y="2754" width="59" height="59" as="geometry" />
        </mxCell>
        <mxCell id="2BLuXLSd1eojTHQWstAA-206" value="10" style="ellipse;whiteSpace=wrap;html=1;aspect=fixed;rounded=1;sketch=0;fontSize=14;fillColor=#CCCCCC;" vertex="1" parent="1">
          <mxGeometry x="386" y="2855" width="57.5" height="57.5" as="geometry" />
        </mxCell>
        <mxCell id="2BLuXLSd1eojTHQWstAA-207" value="28" style="ellipse;whiteSpace=wrap;html=1;aspect=fixed;rounded=1;sketch=0;fontSize=14;fillColor=#CCCCCC;" vertex="1" parent="1">
          <mxGeometry x="604.5" y="2862" width="57.5" height="57.5" as="geometry" />
        </mxCell>
        <mxCell id="2BLuXLSd1eojTHQWstAA-208" value="" style="endArrow=none;html=1;rounded=0;fontSize=14;curved=1;exitX=1;exitY=0;exitDx=0;exitDy=0;" edge="1" parent="1" source="2BLuXLSd1eojTHQWstAA-204" target="2BLuXLSd1eojTHQWstAA-201">
          <mxGeometry width="50" height="50" relative="1" as="geometry">
            <mxPoint x="477" y="2650" as="sourcePoint" />
            <mxPoint x="527" y="2600" as="targetPoint" />
          </mxGeometry>
        </mxCell>
        <mxCell id="2BLuXLSd1eojTHQWstAA-209" value="" style="endArrow=none;html=1;rounded=0;fontSize=14;curved=1;exitX=0.5;exitY=0;exitDx=0;exitDy=0;entryX=0;entryY=1;entryDx=0;entryDy=0;" edge="1" parent="1" source="2BLuXLSd1eojTHQWstAA-202" target="2BLuXLSd1eojTHQWstAA-204">
          <mxGeometry width="50" height="50" relative="1" as="geometry">
            <mxPoint x="392.35965004500326" y="2760.640349954997" as="sourcePoint" />
            <mxPoint x="458.9084428512049" y="2712.5349399721676" as="targetPoint" />
          </mxGeometry>
        </mxCell>
        <mxCell id="2BLuXLSd1eojTHQWstAA-210" value="" style="endArrow=none;html=1;rounded=0;fontSize=14;curved=1;exitX=0.5;exitY=0;exitDx=0;exitDy=0;entryX=1;entryY=1;entryDx=0;entryDy=0;" edge="1" parent="1" source="2BLuXLSd1eojTHQWstAA-206" target="2BLuXLSd1eojTHQWstAA-204">
          <mxGeometry width="50" height="50" relative="1" as="geometry">
            <mxPoint x="292.75" y="2860" as="sourcePoint" />
            <mxPoint x="350.64034995499674" y="2802.359650045003" as="targetPoint" />
          </mxGeometry>
        </mxCell>
        <mxCell id="2BLuXLSd1eojTHQWstAA-211" value="" style="endArrow=none;html=1;rounded=0;fontSize=14;curved=1;exitX=0.5;exitY=0;exitDx=0;exitDy=0;entryX=0;entryY=1;entryDx=0;entryDy=0;" edge="1" parent="1" source="2BLuXLSd1eojTHQWstAA-203" target="2BLuXLSd1eojTHQWstAA-205">
          <mxGeometry width="50" height="50" relative="1" as="geometry">
            <mxPoint x="424.75" y="2865" as="sourcePoint" />
            <mxPoint x="392.35965004500326" y="2802.359650045003" as="targetPoint" />
          </mxGeometry>
        </mxCell>
        <mxCell id="2BLuXLSd1eojTHQWstAA-212" value="" style="endArrow=none;html=1;rounded=0;fontSize=14;curved=1;exitX=0.5;exitY=0;exitDx=0;exitDy=0;entryX=1;entryY=1;entryDx=0;entryDy=0;" edge="1" parent="1" source="2BLuXLSd1eojTHQWstAA-207" target="2BLuXLSd1eojTHQWstAA-205">
          <mxGeometry width="50" height="50" relative="1" as="geometry">
            <mxPoint x="529.75" y="2869" as="sourcePoint" />
            <mxPoint x="551.6403499549967" y="2814.359650045003" as="targetPoint" />
          </mxGeometry>
        </mxCell>
        <mxCell id="2BLuXLSd1eojTHQWstAA-213" value="" style="endArrow=none;html=1;rounded=0;fontSize=14;curved=1;exitX=0;exitY=0;exitDx=0;exitDy=0;entryX=0.974;entryY=0.739;entryDx=0;entryDy=0;entryPerimeter=0;" edge="1" parent="1" source="2BLuXLSd1eojTHQWstAA-205" target="2BLuXLSd1eojTHQWstAA-201">
          <mxGeometry width="50" height="50" relative="1" as="geometry">
            <mxPoint x="664.75" y="2865" as="sourcePoint" />
            <mxPoint x="593.3596500450033" y="2814.359650045003" as="targetPoint" />
          </mxGeometry>
        </mxCell>
        <mxCell id="2BLuXLSd1eojTHQWstAA-217" value="" style="endArrow=classic;html=1;rounded=0;fontSize=14;curved=1;strokeWidth=4;" edge="1" parent="1">
          <mxGeometry width="50" height="50" relative="1" as="geometry">
            <mxPoint x="73.5" y="3105" as="sourcePoint" />
            <mxPoint x="662.5" y="3105" as="targetPoint" />
          </mxGeometry>
        </mxCell>
        <mxCell id="2BLuXLSd1eojTHQWstAA-218" value="进程1" style="rounded=0;whiteSpace=wrap;html=1;sketch=0;fontSize=14;fillColor=#FFFFFF;" vertex="1" parent="1">
          <mxGeometry x="114.5" y="3043" width="136" height="60" as="geometry" />
        </mxCell>
        <mxCell id="2BLuXLSd1eojTHQWstAA-219" value="保存进程1上下文" style="rounded=0;whiteSpace=wrap;html=1;sketch=0;fontSize=14;fillColor=#d5e8d4;strokeColor=#82b366;" vertex="1" parent="1">
          <mxGeometry x="250.5" y="3043" width="77" height="60" as="geometry" />
        </mxCell>
        <mxCell id="2BLuXLSd1eojTHQWstAA-220" value="进程2" style="rounded=0;whiteSpace=wrap;html=1;sketch=0;fontSize=14;fillColor=#FFFFFF;" vertex="1" parent="1">
          <mxGeometry x="404" y="3043" width="196.5" height="60" as="geometry" />
        </mxCell>
        <mxCell id="2BLuXLSd1eojTHQWstAA-221" value="加载进程2上下文" style="rounded=0;whiteSpace=wrap;html=1;sketch=0;fontSize=14;fillColor=#d5e8d4;strokeColor=#82b366;" vertex="1" parent="1">
          <mxGeometry x="328.5" y="3043" width="77" height="60" as="geometry" />
        </mxCell>
        <mxCell id="2BLuXLSd1eojTHQWstAA-222" value="时间" style="text;html=1;strokeColor=none;fillColor=none;align=center;verticalAlign=middle;whiteSpace=wrap;rounded=0;sketch=0;fontSize=14;" vertex="1" parent="1">
          <mxGeometry x="646.5" y="3067" width="60" height="30" as="geometry" />
        </mxCell>
        <mxCell id="2BLuXLSd1eojTHQWstAA-223" value="" style="shape=curlyBracket;whiteSpace=wrap;html=1;rounded=1;flipH=1;sketch=0;fontSize=14;fillColor=#FFFFFF;rotation=90;" vertex="1" parent="1">
          <mxGeometry x="316.75" y="3047.25" width="20" height="153.5" as="geometry" />
        </mxCell>
        <mxCell id="2BLuXLSd1eojTHQWstAA-224" value="进程切换" style="text;html=1;strokeColor=none;fillColor=none;align=center;verticalAlign=middle;whiteSpace=wrap;rounded=0;sketch=0;fontSize=14;" vertex="1" parent="1">
          <mxGeometry x="297.5" y="3132" width="60" height="30" as="geometry" />
        </mxCell>
      </root>
    </mxGraphModel>
  </diagram>
</mxfile>
